<svg width="80" height="80" viewBox="0 0 80 80" fill="none" xmlns="http://www.w3.org/2000/svg">
<g id="Group 2085663187">
<circle id="Ellipse 1" cx="40" cy="40" r="40" fill="#AFC97E"/>
<g id="Group 2085663188">
<path id="Vector" d="M61.2051 58.8191H18.7954C17.926 58.8191 17.2051 59.5401 17.2051 60.4095C17.2051 61.2789 17.926 61.9998 18.7954 61.9998H61.2051C62.0745 61.9998 62.7954 61.2789 62.7954 60.4095C62.7954 59.5401 62.0745 58.8191 61.2051 58.8191Z" fill="#0C1A26"/>
<path id="Vector_2" d="M50.6028 18H29.3979C23.0365 18 20.916 21.7957 20.916 26.4819V60.4096H59.0847V26.4819C59.0847 21.7957 56.9642 18 50.6028 18ZM35.7594 50.3373H29.3979C28.5285 50.3373 27.8076 49.6164 27.8076 48.747C27.8076 47.8776 28.5285 47.1566 29.3979 47.1566H35.7594C36.6288 47.1566 37.3498 47.8776 37.3498 48.747C37.3498 49.6164 36.6288 50.3373 35.7594 50.3373ZM35.7594 40.7952H29.3979C28.5285 40.7952 27.8076 40.0742 27.8076 39.2048C27.8076 38.3354 28.5285 37.6145 29.3979 37.6145H35.7594C36.6288 37.6145 37.3498 38.3354 37.3498 39.2048C37.3498 40.0742 36.6288 40.7952 35.7594 40.7952ZM35.7594 31.253H29.3979C28.5285 31.253 27.8076 30.532 27.8076 29.6627C27.8076 28.7933 28.5285 28.0723 29.3979 28.0723H35.7594C36.6288 28.0723 37.3498 28.7933 37.3498 29.6627C37.3498 30.532 36.6288 31.253 35.7594 31.253ZM50.6028 50.3373H44.2413C43.3719 50.3373 42.651 49.6164 42.651 48.747C42.651 47.8776 43.3719 47.1566 44.2413 47.1566H50.6028C51.4722 47.1566 52.1931 47.8776 52.1931 48.747C52.1931 49.6164 51.4722 50.3373 50.6028 50.3373ZM50.6028 40.7952H44.2413C43.3719 40.7952 42.651 40.0742 42.651 39.2048C42.651 38.3354 43.3719 37.6145 44.2413 37.6145H50.6028C51.4722 37.6145 52.1931 38.3354 52.1931 39.2048C52.1931 40.0742 51.4722 40.7952 50.6028 40.7952ZM50.6028 31.253H44.2413C43.3719 31.253 42.651 30.532 42.651 29.6627C42.651 28.7933 43.3719 28.0723 44.2413 28.0723H50.6028C51.4722 28.0723 52.1931 28.7933 52.1931 29.6627C52.1931 30.532 51.4722 31.253 50.6028 31.253Z" fill="#0C1A26"/>
</g>
</g>
</svg>
