<svg width="60" height="60" viewBox="0 0 60 60" fill="none" xmlns="http://www.w3.org/2000/svg">
<g id="Frame" clip-path="url(#clip0_4083_293)">
<g id="Group">
<g id="Open Folder">
<path id="Vector" d="M59.525 23.175C59.2013 22.5905 58.7267 22.1035 58.1506 21.7649C57.5746 21.4263 56.9182 21.2485 56.25 21.25H20.715C19.517 21.2503 18.3513 21.639 17.393 22.358C16.4347 23.077 15.7353 24.0874 15.4 25.2375L8.36625 49.35C7.99602 50.6193 7.22412 51.7343 6.1664 52.5276C5.10867 53.321 3.82219 53.7499 2.5 53.75H47.185C48.5074 53.75 49.794 53.3211 50.852 52.5278C51.9099 51.7344 52.682 50.6194 53.0525 49.35L59.805 26.2C59.9619 25.7026 60.018 25.1788 59.9701 24.6594C59.9223 24.1401 59.7701 23.6354 59.525 23.175Z" fill="#0C1A26"/>
<path id="Vector_2" d="M5.9625 48.65L13 24.5375C13.4903 22.8706 14.5059 21.4066 15.8957 20.3637C17.2855 19.3208 18.975 18.7548 20.7125 18.75H52.5V17.5C52.5 16.1739 51.9732 14.9021 51.0355 13.9645C50.0979 13.0268 48.8261 12.5 47.5 12.5H28.445C28.0724 12.5001 27.7045 12.4171 27.3681 12.2571C27.0316 12.0971 26.7351 11.8641 26.5 11.575L24.0425 8.55375C23.4572 7.83408 22.7189 7.2539 21.8812 6.8554C21.0436 6.45689 20.1276 6.25008 19.2 6.25H5C3.67392 6.25 2.40215 6.77678 1.46447 7.71447C0.526784 8.65215 0 9.92392 0 11.25L0 48.75C0 49.413 0.263392 50.0489 0.732233 50.5178C1.20107 50.9866 1.83696 51.25 2.5 51.25C3.28032 51.2479 4.03904 50.9936 4.66303 50.525C5.28701 50.0565 5.74283 49.3988 5.9625 48.65Z" fill="#0C1A26"/>
</g>
</g>
</g>
<defs>
<clipPath id="clip0_4083_293">
<rect width="60" height="60" fill="white"/>
</clipPath>
</defs>
</svg>
