<svg width="61" height="60" viewBox="0 0 61 60" fill="none" xmlns="http://www.w3.org/2000/svg">
<g id="Frame" clip-path="url(#clip0_4083_311)">
<g id="Group">
<path id="Vector" d="M14.2213 12.1657L38.1404 5.63681L36.8737 3.07645C36.045 1.41222 34.0236 0.724963 32.3594 1.55371L10.9467 12.1657H14.2213ZM45.5655 5.82547C45.2691 5.82547 44.9725 5.8659 44.6761 5.94675L39.0568 7.48296L21.8956 12.1657H49.8642L48.8131 8.31171C48.4088 6.80919 47.0478 5.82547 45.5655 5.82547ZM53.3746 14.524H3.57558C2.51101 14.524 1.56098 15.0158 0.941108 15.7907C0.658121 16.1478 0.442512 16.5588 0.321231 17.0102C0.247116 17.2932 0.199951 17.5896 0.199951 17.8928V55.4291C0.199951 57.2888 1.70922 58.798 3.56885 58.798H53.3678C55.2275 58.798 56.7367 57.2888 56.7367 55.4291V46.0299H36.7457C33.5857 46.0299 31.0186 43.4628 31.0186 40.3027V32.8103C31.0186 31.2606 31.6384 29.8525 32.6424 28.8216C33.5318 27.9052 34.7244 27.2853 36.0585 27.1304C36.2808 27.1035 36.5099 27.0899 36.739 27.0899H56.7367V17.8928C56.7435 16.0332 55.2342 14.524 53.3746 14.524Z" fill="#0C1A26"/>
<path id="Vector_2" d="M59.1016 30.3106C58.7647 30.0006 58.3672 29.7648 57.9225 29.6098C57.5788 29.4954 57.215 29.428 56.8309 29.428H36.7456C34.8859 29.428 33.3767 30.9372 33.3767 32.7969V40.296C33.3767 42.1556 34.8859 43.6649 36.7456 43.6649H56.8309C57.215 43.6649 57.5788 43.5975 57.9225 43.4829C58.3672 43.3347 58.7647 43.0921 59.1016 42.7822C59.7754 42.1691 60.1998 41.2797 60.1998 40.296V32.7969C60.1998 31.8131 59.7754 30.9236 59.1016 30.3106ZM43.7799 37.2168C43.7799 38.1466 43.0252 38.9012 42.0954 38.9012H40.9769C40.0471 38.9012 39.2925 38.1466 39.2925 37.2168V36.0983C39.2925 35.5593 39.5418 35.0808 39.9393 34.7776C40.229 34.5553 40.5862 34.4139 40.9769 34.4139H42.0954C43.0252 34.4139 43.7799 35.1684 43.7799 36.0983V37.2168Z" fill="#0C1A26"/>
</g>
</g>
<defs>
<clipPath id="clip0_4083_311">
<rect width="60" height="60" fill="white" transform="translate(0.199951)"/>
</clipPath>
</defs>
</svg>
