<svg width="61" height="60" viewBox="0 0 61 60" fill="none" xmlns="http://www.w3.org/2000/svg">
<g id="Frame">
<g id="Group">
<path id="Vector" d="M42.0593 44.8388C42.8411 46.1231 43.0755 47.6325 42.7193 49.0932C42.5463 49.8119 42.2326 50.4892 41.7962 51.0859C41.3597 51.6826 40.8093 52.1868 40.1768 52.5694L35.5193 55.4044C34.6434 55.9388 33.6372 56.2217 32.6112 56.2219C31.7037 56.2219 30.7887 56.0025 29.9393 55.56C20.1593 50.4881 14.5755 42.9563 12.1174 38.9194C6.67053 29.9719 5.52678 21.1557 5.5249 15.3375C5.5249 13.3763 6.53365 11.5875 8.2249 10.5563L12.8843 7.72128C13.5143 7.33491 14.2149 7.07759 14.9452 6.96429C15.6756 6.85099 16.4212 6.88396 17.1387 7.06128C18.5974 7.41565 19.833 8.31753 20.613 9.6019L23.538 14.4057C24.312 15.6806 24.5486 17.2106 24.1961 18.6598C23.8435 20.109 22.9305 21.3593 21.6574 22.1363L19.2443 23.6044C18.5205 24.045 18.168 24.93 18.4099 25.7063C20.0126 30.8849 22.8728 35.586 26.7349 39.39C27.0316 39.6752 27.4152 39.853 27.8246 39.8951C28.234 39.9373 28.6457 39.8413 28.9943 39.6225L31.4055 38.1544C32.6802 37.3798 34.2101 37.1425 35.6594 37.4948C37.1088 37.847 38.3592 38.7599 39.1362 40.0331L42.0612 44.8388H42.0593ZM30.9668 22.3013C32.9314 22.6071 34.6945 23.6795 35.8695 25.2833C37.0445 26.8872 37.5356 28.8915 37.2349 30.8569C37.1973 31.1003 37.2081 31.3487 37.2666 31.5879C37.325 31.8272 37.43 32.0526 37.5756 32.2512C37.7211 32.4499 37.9044 32.6179 38.1149 32.7458C38.3254 32.8736 38.559 32.9587 38.8024 32.9963C39.0458 33.0338 39.2942 33.0231 39.5334 32.9646C39.7727 32.9062 39.9981 32.8012 40.1967 32.6556C40.3954 32.51 40.5634 32.3268 40.6913 32.1163C40.8191 31.9058 40.9042 31.6722 40.9418 31.4288C41.3933 28.4807 40.6571 25.4739 38.8947 23.0678C37.1323 20.6618 34.4875 19.053 31.5405 18.5944C31.0544 18.5296 30.5623 18.6579 30.1696 18.9517C29.7769 19.2454 29.515 19.6814 29.4399 20.166C29.3649 20.6507 29.4827 21.1454 29.7681 21.5442C30.0535 21.943 30.4838 22.2141 30.9668 22.2994V22.3013ZM32.6824 11.1825C32.2007 11.1279 31.7166 11.2617 31.3314 11.556C30.9463 11.8503 30.6899 12.2822 30.6159 12.7613C30.542 13.2404 30.6563 13.7294 30.9349 14.1261C31.2135 14.5228 31.6348 14.7963 32.1105 14.8894C36.0705 15.5007 39.5543 17.6175 41.9224 20.85C44.2905 24.0825 45.258 28.0425 44.6468 32.0025C44.5921 32.4842 44.726 32.9683 45.0203 33.3535C45.3146 33.7387 45.7464 33.9951 46.2255 34.069C46.7046 34.1429 47.1937 34.0286 47.5904 33.75C47.9871 33.4714 48.2606 33.0501 48.3536 32.5744C49.1187 27.6244 47.9093 22.6744 44.9487 18.6338C41.988 14.5932 37.6324 11.9475 32.6824 11.1825ZM33.8262 3.77065C33.3348 3.69625 32.834 3.81936 32.4331 4.11307C32.0322 4.40679 31.7639 4.84722 31.6868 5.33815C31.5293 6.36003 32.2305 7.31815 33.2543 7.47753C45.5149 9.3694 53.9505 20.8838 52.0587 33.1463C52.004 33.6279 52.1379 34.112 52.4321 34.4972C52.7264 34.8824 53.1583 35.1388 53.6374 35.2127C54.1165 35.2866 54.6056 35.1723 55.0023 34.8937C55.3989 34.6151 55.6725 34.1939 55.7655 33.7182C57.9743 19.4138 48.1324 5.98128 33.8262 3.77253V3.77065Z" fill="#0C1A26"/>
</g>
</g>
</svg>
