<svg width="61" height="60" viewBox="0 0 61 60" fill="none" xmlns="http://www.w3.org/2000/svg">
<g id="Frame">
<g id="Group">
<path id="Vector" d="M14.0543 41.0636C14.218 41.8727 14.9361 42.4545 15.7725 42.4545H17.2907C18.1271 42.4545 18.8361 41.8727 19.0089 41.0636L19.2816 39.7364C20.5816 39.4364 21.7907 38.9182 22.8907 38.2364L24.018 38.9727C24.7089 39.4273 25.6271 39.3364 26.218 38.7455L27.2907 37.6727C27.8816 37.0818 27.9725 36.1636 27.518 35.4727L26.7816 34.3455C27.4634 33.2455 27.9816 32.0364 28.2816 30.7364L29.6089 30.4636C30.0034 30.3818 30.3575 30.166 30.611 29.8528C30.8645 29.5396 31.0019 29.1484 30.9998 28.7455V27.2273C30.9998 26.3909 30.418 25.6818 29.6089 25.5091L28.2816 25.2364C27.9816 23.9364 27.4725 22.7273 26.7816 21.6273L27.518 20.5C27.9725 19.8091 27.8816 18.8909 27.2907 18.3L26.218 17.2273C25.6271 16.6364 24.7089 16.5455 24.018 17L22.8907 17.7364C21.7907 17.0545 20.5816 16.5364 19.2816 16.2364L19.0089 14.9091C18.927 14.5146 18.7112 14.1605 18.398 13.907C18.0849 13.6534 17.6936 13.5161 17.2907 13.5182H15.7725C14.9361 13.5182 14.2271 14.1 14.0543 14.9091L13.7816 16.2364C12.4816 16.5364 11.2725 17.0545 10.1816 17.7364L9.05433 17C8.36342 16.5455 7.44524 16.6364 6.85433 17.2273L5.7816 18.3C5.19069 18.8909 5.09978 19.8091 5.55433 20.5L6.29069 21.6273C5.59978 22.7273 5.09069 23.9364 4.79069 25.2364L3.46342 25.5091C2.65433 25.6727 2.07251 26.3909 2.07251 27.2273V28.7455C2.07251 29.5818 2.65433 30.2909 3.46342 30.4636L4.79069 30.7364C5.09069 32.0364 5.60887 33.2455 6.29069 34.3455L5.55433 35.4727C5.09978 36.1636 5.19069 37.0818 5.7816 37.6727L6.85433 38.7455C7.44524 39.3364 8.36342 39.4273 9.05433 38.9727L10.1816 38.2364C11.2725 38.9182 12.4816 39.4364 13.7816 39.7364L14.0543 41.0636ZM10.5998 28C10.5998 24.7182 13.2543 22.0636 16.5361 22.0636C19.818 22.0636 22.4725 24.7182 22.4725 28C22.4725 31.2818 19.818 33.9364 16.5361 33.9364C13.2543 33.9364 10.5998 31.2727 10.5998 28ZM29.318 15.7545L30.4089 15.9818C30.6543 17.0545 31.0816 18.0545 31.6452 18.9545L31.0361 19.8818C30.6634 20.4545 30.7361 21.2 31.218 21.6909L32.0998 22.5727C32.5816 23.0545 33.3361 23.1364 33.9089 22.7545L34.8361 22.1455C35.7361 22.7091 36.7361 23.1273 37.7998 23.3818L38.0271 24.4727C38.1634 25.1364 38.7543 25.6182 39.4361 25.6182H40.6907C41.3725 25.6182 41.9634 25.1364 42.0998 24.4727L42.3271 23.3818C43.3998 23.1364 44.3998 22.7091 45.2998 22.1455L46.2271 22.7545C46.7998 23.1273 47.5452 23.0545 48.0361 22.5727L48.918 21.6909C49.3998 21.2091 49.4816 20.4545 49.0998 19.8818L48.4907 18.9545C49.0543 18.0545 49.4725 17.0545 49.7271 15.9818L50.818 15.7545C51.4816 15.6182 51.9634 15.0273 51.9634 14.3455V13.1C51.9634 12.4182 51.4816 11.8273 50.818 11.6909L49.7271 11.4636C49.4881 10.4093 49.0699 9.40376 48.4907 8.49091L49.0998 7.56363C49.4725 6.99091 49.3998 6.24545 48.918 5.75454L48.0361 4.87273C47.5543 4.39091 46.7998 4.30909 46.2271 4.69091L45.2998 5.3C44.3998 4.73636 43.3998 4.31818 42.3271 4.06363L42.0998 2.97273C41.9634 2.30909 41.3725 1.82727 40.6907 1.82727H39.4361C38.7543 1.82727 38.1634 2.30909 38.0271 2.97273L37.7998 4.06363C36.7271 4.30909 35.7271 4.73636 34.8361 5.3L33.9089 4.69091C33.6321 4.50955 33.3014 4.42866 32.9722 4.46175C32.6429 4.49484 32.335 4.63991 32.0998 4.87273L31.218 5.75454C30.7361 6.23636 30.6543 6.99091 31.0361 7.56363L31.6452 8.49091C31.0725 9.39091 30.6634 10.3909 30.4089 11.4636L29.318 11.6909C28.6543 11.8273 28.1725 12.4182 28.1725 13.1V14.3455C28.1725 15.0273 28.6543 15.6182 29.318 15.7545ZM40.0725 8.83636C42.7725 8.83636 44.9543 11.0182 44.9543 13.7182C44.9543 16.4182 42.7725 18.6 40.0725 18.6C37.3725 18.6 35.1907 16.4182 35.1907 13.7182C35.1907 11.0273 37.3725 8.83636 40.0725 8.83636ZM58.0271 40.4727L53.827 42.4818C53.5271 42.6273 53.1816 42.6182 52.8907 42.4727L47.1634 39.5727C46.7361 39.3636 46.5089 38.8818 46.6089 38.4182L47.9452 32.1455C48.018 31.8273 48.2271 31.5545 48.5271 31.4182L52.718 29.4091C53.2725 29.1455 53.3089 28.3364 52.7543 28.0455C49.0634 26.1364 44.4543 26.1182 40.5452 28.6C37.2634 30.6727 35.2634 34.1909 34.9452 37.9182L15.3907 47.4091C13.8634 48.1364 12.7816 49.4273 12.2543 50.9091C11.7271 52.3909 11.7634 54.0727 12.4998 55.6C13.2033 57.0689 14.4612 58.1984 15.997 58.7405C17.5328 59.2826 19.221 59.1928 20.6907 58.4909L40.2543 48.9818C43.7271 51.3455 48.3361 51.8545 52.3998 49.9091C55.9998 48.1909 58.3725 44.9364 59.0998 41.3C59.2271 40.6818 58.5907 40.2 58.0271 40.4727ZM19.7361 54.9C18.4998 55.4909 16.9998 54.9636 16.4089 53.7273C15.818 52.4909 16.3452 50.9909 17.5816 50.4C18.818 49.8091 20.318 50.3364 20.9089 51.5727C21.4998 52.8091 20.9725 54.3091 19.7361 54.9Z" fill="#0C1A26"/>
</g>
</g>
</svg>
