<svg width="80" height="80" viewBox="0 0 80 80" fill="none" xmlns="http://www.w3.org/2000/svg">
<g id="Group 2085663187">
<circle id="Ellipse 1" cx="40" cy="40" r="40" fill="#FFDF64"/>
<path id="Vector" d="M60 57.2175H58V34.6775C58 33.4375 57.44 32.2775 56.46 31.5175L54 29.5975L53.96 24.6975C53.96 23.5975 53.06 22.7175 51.96 22.7175H45.14L42.46 20.6375C41.02 19.4975 38.98 19.4975 37.54 20.6375L23.54 31.5175C22.56 32.2775 22 33.4375 22 34.6575L21.9 57.2175H20C19.18 57.2175 18.5 57.8975 18.5 58.7175C18.5 59.5375 19.18 60.2175 20 60.2175H60C60.82 60.2175 61.5 59.5375 61.5 58.7175C61.5 57.8975 60.82 57.2175 60 57.2175ZM29 40.2175V37.2175C29 36.1175 29.9 35.2175 31 35.2175H35C36.1 35.2175 37 36.1175 37 37.2175V40.2175C37 41.3175 36.1 42.2175 35 42.2175H31C29.9 42.2175 29 41.3175 29 40.2175ZM45 57.2175H35V51.7175C35 50.0575 36.34 48.7175 38 48.7175H42C43.66 48.7175 45 50.0575 45 51.7175V57.2175ZM51 40.2175C51 41.3175 50.1 42.2175 49 42.2175H45C43.9 42.2175 43 41.3175 43 40.2175V37.2175C43 36.1175 43.9 35.2175 45 35.2175H49C50.1 35.2175 51 36.1175 51 37.2175V40.2175Z" fill="#2E2D2B"/>
</g>
</svg>
