<svg width="71" height="70" viewBox="0 0 71 70" fill="none" xmlns="http://www.w3.org/2000/svg">
<g id="Frame">
<g id="Group">
<path id="Vector" d="M24.8601 53.4248C24.8267 53.7577 24.8555 54.1053 24.9768 54.4499C25.2731 55.2806 25.9685 55.9572 26.7921 56.2123C27.5575 56.4542 28.3189 56.2932 28.5499 56.042L30.1467 54.3286C30.6087 53.8347 30.7253 53.0452 30.4539 52.2791C29.7858 50.9989 28.8906 50.5369 27.7441 50.33L24.8601 53.4248ZM22.7243 44.8576L19.9337 47.8504C19.3667 48.4672 19.2041 49.4153 19.5207 50.3238C19.8567 51.2836 20.6586 52.0644 21.6183 52.3561C22.5268 52.6283 23.4383 52.4168 24.0092 51.8093L26.593 49.0381C27.1639 48.4229 27.3226 47.4794 27.006 46.571C26.67 45.6066 25.8635 44.8288 24.9083 44.5387C24.1461 44.2952 23.2517 44.2859 22.7243 44.8576ZM17.192 39.9327L14.6152 42.6992C14.0475 43.3113 13.8888 44.2626 14.2022 45.1741C14.5382 46.1308 15.3401 46.9117 16.2999 47.2033C17.2068 47.4794 18.1277 47.264 18.4147 46.9599L21.2753 43.89C21.8462 43.2732 22.0049 42.3251 21.6883 41.4182C21.3508 40.4553 20.5489 39.6776 19.5891 39.389C18.7063 39.1012 17.7295 39.3571 17.192 39.9327ZM12.1512 34.4789L9.29524 37.5503C8.72435 38.1656 8.56568 39.109 8.88224 40.0128C9.21513 40.9803 10.0217 41.7581 10.9815 42.0498C11.8883 42.3204 12.8077 42.1104 13.0916 41.8024L15.9553 38.7326V38.7294C16.5262 38.122 16.6849 37.177 16.3683 36.2701C16.037 35.3026 15.2305 34.5248 14.2707 34.2362C13.5372 33.9834 12.6498 33.9399 12.1512 34.4789ZM49.2295 16.1614C47.3822 17.1943 44.8148 17.3794 42.3142 17.5591C40.4227 17.6882 38.4712 17.8251 37.0689 18.3431L29.2717 21.2201C29.2194 21.2404 29.1648 21.2542 29.1091 21.2613C28.7327 21.3204 28.3842 21.371 28.0716 21.4146C26.173 21.6821 25.9537 21.7638 25.7351 22.3261C25.536 22.8457 25.7546 23.5947 26.2943 24.2309C26.7346 24.7535 28.4573 26.3853 32.0017 25.5461L36.442 24.9597C38.9286 24.6392 40.922 26.2601 42.5141 27.5683L54.4554 37.121L54.4647 37.1163C56.8252 36.1286 59.2846 34.8437 61.3752 32.3252L49.2295 16.1614Z" fill="#0C1A26"/>
<path id="Vector_2" d="M32.799 15.5812C32.0912 15.6465 31.28 15.736 30.4291 15.8247C25.7228 16.3271 23.1133 16.5247 21.7857 16.2789L9.56757 32.1821C9.99724 32.5812 10.3744 33.0333 10.6899 33.5277C11.7111 32.4823 13.2542 32.109 14.7569 32.5632C16.2316 33.0081 17.4628 34.2035 17.9777 35.6868C18.1962 36.3144 18.2647 36.9584 18.2087 37.5752C18.8338 37.4854 19.4709 37.5338 20.0753 37.7168C21.5461 38.1585 22.782 39.3571 23.293 40.8403C23.5147 41.4649 23.5847 42.1073 23.5318 42.7241C24.1572 42.634 24.7947 42.6839 25.3985 42.8703C26.8661 43.3152 28.0966 44.5107 28.6115 45.9861C28.935 46.9218 28.9475 47.8847 28.6846 48.748C28.8347 48.7768 28.9887 48.8133 29.1419 48.8615C30.4587 49.2699 31.5771 50.3518 32.0586 51.6857C32.5175 52.9768 32.3183 54.3332 31.5647 55.307L33.7323 57.0407C34.2628 57.4614 35.0359 57.5073 35.7577 57.1573C36.5401 56.7778 37.1312 56.007 37.3055 55.1444C37.3728 54.8021 37.3613 54.4488 37.272 54.1115L34.5226 51.912C34.3446 51.7668 34.2299 51.5582 34.2026 51.3302C34.1753 51.1021 34.2376 50.8724 34.3763 50.6893C34.4444 50.5997 34.5297 50.5246 34.6272 50.4684C34.7247 50.4122 34.8324 50.3761 34.944 50.3621C35.0557 50.3481 35.169 50.3566 35.2773 50.387C35.3857 50.4174 35.4868 50.4692 35.5749 50.5392L38.8805 53.1883C39.2087 53.4512 40.149 53.5212 41.0116 53.1152C41.9185 52.682 42.6037 51.7891 42.7935 50.7928C42.9755 49.8509 42.6838 48.9378 42.0351 48.4151L39.0453 46.0227C38.8662 45.879 38.7506 45.6708 38.7232 45.4427C38.6959 45.2147 38.759 44.9851 38.8991 44.8031C38.9661 44.7126 39.0508 44.6366 39.148 44.5798C39.2453 44.5229 39.353 44.4864 39.4647 44.4724C39.5765 44.4583 39.6899 44.4671 39.7982 44.4981C39.9064 44.5292 40.0072 44.5819 40.0946 44.653L44.4408 48.1289C45.0941 48.6484 46.0329 48.72 46.9001 48.3155C47.7992 47.8854 48.4845 46.9941 48.6789 45.9869C48.8609 45.045 48.5692 44.135 47.9136 43.6077L43.5658 40.1364C43.3864 39.9909 43.2707 39.7811 43.2434 39.5516C43.2161 39.3222 43.2793 39.0912 43.4196 38.9075C43.4883 38.8185 43.5741 38.744 43.6719 38.6884C43.7697 38.6328 43.8776 38.5972 43.9893 38.5838C44.101 38.5703 44.2143 38.5792 44.3225 38.6099C44.4307 38.6407 44.5317 38.6927 44.6197 38.7629C44.6197 38.7629 51.2215 44.0417 51.2261 44.0417C51.5543 44.2999 52.49 44.373 53.3487 43.9623C54.2571 43.5384 54.9377 42.6471 55.1352 41.643C55.3141 40.6995 55.0225 39.7833 54.3699 39.2653L41.4487 28.9248C39.9662 27.7091 38.4348 26.4499 36.656 26.6887L32.3051 27.2564C29.3721 27.9611 26.6056 27.2642 25.0057 25.3727C24.0412 24.2332 23.713 22.8239 24.1462 21.6907C24.7537 20.1188 25.9172 19.9562 27.8376 19.6855C28.1246 19.649 28.4333 19.6039 28.7732 19.5502L36.4903 16.7035C36.992 16.5169 37.5473 16.3878 38.1221 16.2734C36.138 15.5058 34.6999 15.4599 32.799 15.5812ZM16.0286 12.5673C14.6231 12.4608 13.3398 13.5201 11.4926 15.9258L6.76834 22.0795C5.05957 24.2993 4.41945 25.6799 4.56101 26.8497C4.67457 27.811 5.34346 28.7544 6.0069 29.2864L8.24768 31.0761L20.416 15.2382L18.841 13.9774C17.7583 13.1141 16.8717 12.6327 16.0286 12.5673ZM55.0481 12.551C54.205 12.6039 53.3106 13.0752 52.2193 13.9261L50.6272 15.1612L62.6268 31.1282L64.1777 29.9219C65.5193 28.8812 66.2038 27.9502 66.329 26.9897C66.4838 25.823 65.8639 24.4315 64.1823 22.183L59.5351 15.9701C57.7245 13.5395 56.4575 12.4608 55.0481 12.551Z" fill="#0C1A26"/>
</g>
</g>
</svg>
