<svg width="289" height="187" viewBox="0 0 289 187" fill="none" xmlns="http://www.w3.org/2000/svg">
<g filter="url(#filter0_d_4083_237)">
<rect x="52.3501" y="17" width="160" height="94" rx="16" fill="white"/>
<path d="M95.7655 75.2454C96.003 75.2454 96.2081 75.3318 96.3809 75.5045C96.5536 75.6772 96.64 75.8824 96.64 76.1199V81.658C96.64 81.8955 96.5536 82.1006 96.3809 82.2733C96.2081 82.4244 96.003 82.5 95.7655 82.5H75.3944C75.1569 82.5 74.9518 82.4244 74.7791 82.2733C74.6279 82.1006 74.5524 81.8955 74.5524 81.658V71.0028C74.5524 66.9653 76.1825 63.5647 79.4427 60.8011C80.1336 60.2397 81.0189 59.6459 82.0984 59.0198C82.9621 58.5232 83.6314 58.1562 84.1064 57.9187C85.6178 57.1198 86.5354 56.5908 86.8592 56.3317C88.2627 55.0363 88.9644 53.5249 88.9644 51.7976V46.5186C88.9644 45.0504 88.6621 44.068 88.0575 43.5714C87.5825 43.118 86.7513 42.8913 85.5638 42.8913C84.3979 42.8913 83.5558 43.118 83.0376 43.5714C82.4331 44.1112 82.1308 45.0936 82.1308 46.5186V49.6601C82.1308 49.8976 82.0445 50.1027 81.8717 50.2755C81.699 50.4266 81.4939 50.5022 81.2564 50.5022H75.3944C75.1569 50.5022 74.9518 50.4266 74.7791 50.2755C74.6279 50.1027 74.5524 49.8976 74.5524 49.6601V46.5186C74.5524 42.9345 75.6535 40.1709 77.8558 38.2277C79.8206 36.5004 82.3899 35.6368 85.5638 35.6368C88.7161 35.6368 91.2746 36.5004 93.2394 38.2277C95.4633 40.1925 96.5752 42.9561 96.5752 46.5186V51.7976C96.5752 53.7408 96.1542 55.576 95.3121 57.3033C94.4701 59.0306 93.261 60.5528 91.6848 61.8698C90.8644 62.5391 90.1735 63.0465 89.6121 63.392C88.9428 63.7806 88.2087 64.1585 87.4098 64.5255C86.7405 64.8278 86.2115 65.0869 85.8229 65.3028C85.2831 65.6051 84.7865 65.9505 84.3331 66.3391C82.8649 67.613 82.1308 69.1676 82.1308 71.0028V74.371C82.1308 74.6085 82.2172 74.8136 82.3899 74.9863C82.5626 75.1591 82.7677 75.2454 83.0053 75.2454H95.7655ZM108.236 43.3771C107.998 43.3771 107.793 43.4635 107.62 43.6362C107.448 43.8089 107.361 44.0141 107.361 44.2516V53.9027C107.361 54.1402 107.448 54.3454 107.62 54.5181C107.793 54.6908 107.998 54.7772 108.236 54.7772C108.43 54.7772 108.775 54.7772 109.272 54.7772C109.769 54.7556 110.146 54.7448 110.406 54.7448C112.327 54.7448 113.99 54.9931 115.393 55.4897C116.818 55.9647 117.93 56.58 118.729 57.3357C119.528 58.0914 120.165 59.0306 120.64 60.1533C121.136 61.2761 121.449 62.3556 121.579 63.392C121.73 64.4283 121.806 65.5943 121.806 66.8897V72.1687C121.806 75.6665 120.694 78.4301 118.47 80.4597C116.505 82.1869 113.946 83.0506 110.794 83.0506C107.62 83.0506 105.051 82.1869 103.086 80.4597C100.884 78.4517 99.7827 75.6988 99.7827 72.2011V68.9948C99.7827 68.7573 99.8583 68.5522 100.009 68.3795C100.182 68.2068 100.387 68.1204 100.625 68.1204H106.519C106.757 68.1204 106.951 68.2068 107.102 68.3795C107.275 68.5522 107.361 68.7573 107.361 68.9948V72.2011C107.361 73.6045 107.663 74.5761 108.268 75.1159C108.786 75.5693 109.628 75.796 110.794 75.796C111.96 75.796 112.791 75.5693 113.288 75.1159C113.892 74.6409 114.195 73.6693 114.195 72.2011V68.5414C114.195 68.5198 114.195 68.3363 114.195 67.9909C114.195 67.6238 114.195 67.2676 114.195 66.9221C114.195 66.5551 114.195 66.2096 114.195 65.8857C114.195 65.5403 114.195 65.346 114.195 65.3028C114.152 64.5903 113.979 63.9965 113.677 63.5215C113.374 63.0249 113.029 62.6471 112.64 62.388C112.252 62.1073 111.712 61.9022 111.021 61.7727C110.352 61.6431 109.736 61.5675 109.175 61.5459C108.635 61.5028 107.923 61.4812 107.037 61.4812H100.657C100.42 61.4812 100.215 61.4056 100.042 61.2545C99.8691 61.0817 99.7827 60.8766 99.7827 60.6391V36.997C99.7827 36.7595 99.8583 36.5544 100.009 36.3816C100.182 36.2089 100.387 36.1226 100.625 36.1226H120.996C121.233 36.1226 121.439 36.2089 121.611 36.3816C121.784 36.5544 121.87 36.7595 121.87 36.997V42.5351C121.87 42.7726 121.784 42.9777 121.611 43.1504C121.439 43.3016 121.233 43.3771 120.996 43.3771H108.236Z" fill="#002496"/>
<path d="M134.563 43.9732L137.289 57.6817C137.302 57.7612 137.282 57.8342 137.229 57.9005C137.183 57.9668 137.116 58 137.03 58H135.2C135.133 58 135.074 57.9801 135.02 57.9403C134.967 57.9005 134.938 57.8475 134.931 57.7811L134.613 55.8413C134.593 55.6954 134.507 55.6224 134.354 55.6224H132.394C132.242 55.6224 132.155 55.6954 132.136 55.8413L131.807 57.7811C131.787 57.927 131.701 58 131.549 58H129.718C129.632 58 129.562 57.9668 129.509 57.9005C129.463 57.8342 129.446 57.7612 129.46 57.6817L132.175 43.9732C132.202 43.8273 132.288 43.7544 132.434 43.7544H134.304C134.45 43.7544 134.536 43.8273 134.563 43.9732ZM133.857 53.394C133.936 53.394 134.002 53.3642 134.056 53.3045C134.109 53.2382 134.128 53.1652 134.115 53.0857L133.498 49.3253C133.492 49.2523 133.449 49.2159 133.369 49.2159C133.29 49.2159 133.246 49.2523 133.24 49.3253L132.623 53.0857C132.61 53.1652 132.63 53.2382 132.683 53.3045C132.736 53.3642 132.802 53.394 132.882 53.394H133.857ZM144.76 43.7544C144.833 43.7544 144.893 43.7809 144.939 43.834C144.992 43.887 145.019 43.95 145.019 44.023V57.7314C145.019 57.8044 144.992 57.8674 144.939 57.9204C144.893 57.9735 144.833 58 144.76 58H143.795C143.696 58 143.619 57.9536 143.566 57.8607L140.373 51.683C140.34 51.6233 140.29 51.6034 140.224 51.6233C140.157 51.6366 140.124 51.6763 140.124 51.7427V57.7314C140.124 57.8044 140.098 57.8674 140.045 57.9204C139.998 57.9735 139.939 58 139.866 58H138.055C137.982 58 137.919 57.9735 137.866 57.9204C137.82 57.8674 137.796 57.8044 137.796 57.7314V44.023C137.796 43.95 137.82 43.887 137.866 43.834C137.919 43.7809 137.982 43.7544 138.055 43.7544H139.02C139.133 43.7544 139.212 43.8041 139.259 43.9036L142.442 50.3002C142.462 50.34 142.492 50.3665 142.532 50.3798C142.571 50.3864 142.608 50.3765 142.641 50.3499C142.674 50.3234 142.691 50.2869 142.691 50.2405V44.023C142.691 43.95 142.717 43.887 142.77 43.834C142.823 43.7809 142.886 43.7544 142.959 43.7544H144.76ZM150.719 49.2258C150.646 49.2258 150.583 49.2026 150.53 49.1562C150.477 49.1031 150.451 49.0401 150.451 48.9672V46.9477C150.451 46.4967 150.358 46.195 150.172 46.0424C150.02 45.9032 149.761 45.8335 149.396 45.8335C149.045 45.8335 148.789 45.9032 148.63 46.0424C148.445 46.2082 148.352 46.51 148.352 46.9477V47.7933C148.352 48.3636 148.59 48.8478 149.068 49.2457C149.187 49.3386 149.443 49.4878 149.834 49.6934C150.51 50.0449 150.991 50.34 151.276 50.5787C152.278 51.4276 152.779 52.4722 152.779 53.7124V54.8166C152.779 55.891 152.44 56.7366 151.764 57.3534C151.16 57.8839 150.371 58.1492 149.396 58.1492C148.428 58.1492 147.642 57.8839 147.039 57.3534C146.355 56.73 146.014 55.8844 146.014 54.8166V52.4888C146.014 52.4158 146.04 52.3528 146.093 52.2998C146.147 52.2467 146.21 52.2202 146.283 52.2202H148.083C148.156 52.2202 148.219 52.2467 148.272 52.2998C148.325 52.3528 148.352 52.4158 148.352 52.4888V54.8166C148.352 55.2477 148.445 55.5461 148.63 55.7119C148.789 55.8512 149.045 55.9209 149.396 55.9209C149.761 55.9209 150.02 55.8512 150.172 55.7119C150.358 55.566 150.451 55.2676 150.451 54.8166V53.7124C150.451 53.1487 150.212 52.6579 149.734 52.2401C149.615 52.1472 149.34 51.9847 148.909 51.7526C148.299 51.4409 147.834 51.159 147.516 50.907C147.039 50.5091 146.667 50.0382 146.402 49.4944C146.143 48.9705 146.014 48.4034 146.014 47.7933V46.9477C146.014 45.8733 146.355 45.0244 147.039 44.401C147.642 43.8704 148.428 43.6051 149.396 43.6051C150.371 43.6051 151.16 43.8704 151.764 44.401C152.44 45.0178 152.779 45.8667 152.779 46.9477V48.9672C152.779 49.0401 152.752 49.1031 152.699 49.1562C152.653 49.2026 152.593 49.2258 152.52 49.2258H150.719ZM163.901 44.5701C164.584 45.1736 164.926 46.0159 164.926 47.0969V54.737C164.926 55.2543 164.843 55.7252 164.677 56.1497C164.485 56.5874 164.22 56.9521 163.881 57.2439C163.311 57.748 162.532 58 161.544 58H158.42C158.347 58 158.284 57.9735 158.231 57.9204C158.185 57.8674 158.161 57.8044 158.161 57.7314V44.023C158.161 43.95 158.185 43.887 158.231 43.834C158.284 43.7809 158.347 43.7544 158.42 43.7544H161.544C162.499 43.7544 163.285 44.0263 163.901 44.5701ZM162.588 54.737V47.0969C162.588 46.6725 162.495 46.3707 162.31 46.1916C162.15 46.0524 161.895 45.9827 161.544 45.9827H160.758C160.685 45.9827 160.622 46.0093 160.569 46.0623C160.516 46.1154 160.489 46.1784 160.489 46.2513V55.503C160.489 55.576 160.516 55.639 160.569 55.692C160.622 55.7451 160.685 55.7716 160.758 55.7716H161.544C161.928 55.7716 162.194 55.7086 162.339 55.5826C162.505 55.4433 162.588 55.1615 162.588 54.737ZM168.607 45.9827C168.534 45.9827 168.471 46.0093 168.418 46.0623C168.365 46.1154 168.339 46.1784 168.339 46.2513V49.4646C168.339 49.5375 168.365 49.6005 168.418 49.6536C168.471 49.7 168.534 49.7232 168.607 49.7232H170.557C170.63 49.7232 170.69 49.7497 170.736 49.8028C170.789 49.8558 170.816 49.9189 170.816 49.9918V51.6929C170.816 51.7659 170.789 51.8289 170.736 51.8819C170.69 51.9284 170.63 51.9516 170.557 51.9516H168.607C168.534 51.9516 168.471 51.9781 168.418 52.0312C168.365 52.0842 168.339 52.1472 168.339 52.2202V55.503C168.339 55.576 168.365 55.639 168.418 55.692C168.471 55.7451 168.534 55.7716 168.607 55.7716H171.671C171.744 55.7716 171.807 55.7982 171.86 55.8512C171.913 55.9043 171.94 55.9673 171.94 56.0402V57.7314C171.94 57.8044 171.913 57.8674 171.86 57.9204C171.807 57.9735 171.744 58 171.671 58H166.269C166.196 58 166.133 57.9735 166.08 57.9204C166.034 57.8674 166.011 57.8044 166.011 57.7314V44.023C166.011 43.95 166.034 43.887 166.08 43.834C166.133 43.7809 166.196 43.7544 166.269 43.7544H171.671C171.744 43.7544 171.807 43.7809 171.86 43.834C171.913 43.887 171.94 43.95 171.94 44.023V45.7241C171.94 45.797 171.913 45.86 171.86 45.9131C171.807 45.9595 171.744 45.9827 171.671 45.9827H168.607Z" fill="#EF293A"/>
<path d="M134.742 72.2457C134.669 72.2457 134.606 72.2225 134.553 72.1761C134.5 72.123 134.473 72.06 134.473 71.9871V69.9477C134.473 69.4967 134.387 69.195 134.215 69.0424C134.056 68.9032 133.794 68.8335 133.429 68.8335C133.071 68.8335 132.812 68.9032 132.653 69.0424C132.467 69.2082 132.374 69.51 132.374 69.9477V77.8166C132.374 78.2477 132.467 78.5461 132.653 78.7119C132.812 78.8512 133.071 78.9209 133.429 78.9209C133.794 78.9209 134.056 78.8512 134.215 78.7119C134.387 78.5594 134.473 78.261 134.473 77.8166V75.9165C134.473 75.8436 134.447 75.7806 134.394 75.7275C134.347 75.6745 134.288 75.6479 134.215 75.6479H133.638C133.565 75.6479 133.502 75.6247 133.449 75.5783C133.402 75.5252 133.379 75.4622 133.379 75.3893V73.6882C133.379 73.6152 133.402 73.5555 133.449 73.5091C133.502 73.456 133.565 73.4295 133.638 73.4295H136.543C136.616 73.4295 136.679 73.456 136.732 73.5091C136.785 73.5555 136.811 73.6152 136.811 73.6882V77.8166C136.811 78.8844 136.47 79.73 135.786 80.3534C135.183 80.8839 134.397 81.1492 133.429 81.1492C132.474 81.1492 131.685 80.8839 131.061 80.3534C130.385 79.7101 130.046 78.8645 130.046 77.8166V69.9477C130.046 68.8932 130.385 68.0443 131.061 67.401C131.691 66.8704 132.48 66.6051 133.429 66.6051C134.397 66.6051 135.183 66.8704 135.786 67.401C136.47 68.0244 136.811 68.8733 136.811 69.9477V71.9871C136.811 72.06 136.785 72.123 136.732 72.1761C136.679 72.2225 136.616 72.2457 136.543 72.2457H134.742ZM142.313 66.9732L145.039 80.6817C145.052 80.7612 145.032 80.8342 144.979 80.9005C144.932 80.9668 144.866 81 144.78 81H142.95C142.883 81 142.823 80.9801 142.77 80.9403C142.717 80.9005 142.688 80.8475 142.681 80.7811L142.363 78.8413C142.343 78.6954 142.256 78.6224 142.104 78.6224H140.144C139.992 78.6224 139.905 78.6954 139.885 78.8413L139.557 80.7811C139.537 80.927 139.451 81 139.299 81H137.468C137.382 81 137.312 80.9668 137.259 80.9005C137.213 80.8342 137.196 80.7612 137.209 80.6817L139.925 66.9732C139.952 66.8273 140.038 66.7544 140.184 66.7544H142.054C142.2 66.7544 142.286 66.8273 142.313 66.9732ZM141.607 76.394C141.686 76.394 141.752 76.3642 141.805 76.3045C141.859 76.2382 141.878 76.1652 141.865 76.0857L141.248 72.3253C141.242 72.2523 141.199 72.2159 141.119 72.2159C141.039 72.2159 140.996 72.2523 140.99 72.3253L140.373 76.0857C140.36 76.1652 140.38 76.2382 140.433 76.3045C140.486 76.3642 140.552 76.394 140.632 76.394H141.607ZM151.286 74.5934C151.22 74.6598 151.167 74.7062 151.127 74.7327C151.048 74.7924 151.018 74.8786 151.038 74.9914L152.202 80.6817C152.215 80.7612 152.195 80.8342 152.142 80.9005C152.095 80.9668 152.029 81 151.943 81H150.103C149.963 81 149.877 80.9304 149.844 80.7911L148.799 75.5982C148.766 75.4589 148.68 75.3893 148.541 75.3893H148.143C148.07 75.3893 148.007 75.4158 147.954 75.4689C147.901 75.5219 147.874 75.5849 147.874 75.6579V80.7314C147.874 80.8044 147.848 80.8674 147.795 80.9204C147.748 80.9735 147.688 81 147.616 81H145.805C145.732 81 145.669 80.9735 145.616 80.9204C145.57 80.8674 145.546 80.8044 145.546 80.7314V67.023C145.546 66.95 145.57 66.887 145.616 66.834C145.669 66.7809 145.732 66.7544 145.805 66.7544H148.929C149.884 66.7544 150.67 67.0263 151.286 67.5701C151.969 68.1736 152.311 69.0159 152.311 70.0969V72.0467C152.311 73.141 151.969 73.9899 151.286 74.5934ZM149.973 72.0467V70.0969C149.973 69.6725 149.88 69.3707 149.695 69.1916C149.536 69.0524 149.28 68.9827 148.929 68.9827H148.143C148.07 68.9827 148.007 69.0093 147.954 69.0623C147.901 69.1154 147.874 69.1784 147.874 69.2513V72.9023C147.874 72.9752 147.901 73.0382 147.954 73.0913C148.007 73.1377 148.07 73.1609 148.143 73.1609H148.929C149.287 73.1609 149.545 73.0913 149.705 72.952C149.884 72.7928 149.973 72.4911 149.973 72.0467ZM157.634 66.9732L160.359 80.6817C160.373 80.7612 160.353 80.8342 160.3 80.9005C160.253 80.9668 160.187 81 160.101 81H158.27C158.204 81 158.144 80.9801 158.091 80.9403C158.038 80.9005 158.008 80.8475 158.002 80.7811L157.683 78.8413C157.663 78.6954 157.577 78.6224 157.425 78.6224H155.465C155.312 78.6224 155.226 78.6954 155.206 78.8413L154.878 80.7811C154.858 80.927 154.772 81 154.619 81H152.789C152.703 81 152.633 80.9668 152.58 80.9005C152.534 80.8342 152.517 80.7612 152.53 80.6817L155.246 66.9732C155.273 66.8273 155.359 66.7544 155.505 66.7544H157.375C157.521 66.7544 157.607 66.8273 157.634 66.9732ZM156.927 76.394C157.007 76.394 157.073 76.3642 157.126 76.3045C157.179 76.2382 157.199 76.1652 157.186 76.0857L156.569 72.3253C156.563 72.2523 156.519 72.2159 156.44 72.2159C156.36 72.2159 156.317 72.2523 156.311 72.3253L155.694 76.0857C155.681 76.1652 155.7 76.2382 155.753 76.3045C155.807 76.3642 155.873 76.394 155.952 76.394H156.927ZM167.831 66.7544C167.904 66.7544 167.963 66.7809 168.01 66.834C168.063 66.887 168.089 66.95 168.089 67.023V80.7314C168.089 80.8044 168.063 80.8674 168.01 80.9204C167.963 80.9735 167.904 81 167.831 81H166.866C166.766 81 166.69 80.9536 166.637 80.8607L163.444 74.683C163.411 74.6233 163.361 74.6034 163.294 74.6233C163.228 74.6366 163.195 74.6763 163.195 74.7427V80.7314C163.195 80.8044 163.168 80.8674 163.115 80.9204C163.069 80.9735 163.009 81 162.936 81H161.126C161.053 81 160.99 80.9735 160.937 80.9204C160.89 80.8674 160.867 80.8044 160.867 80.7314V67.023C160.867 66.95 160.89 66.887 160.937 66.834C160.99 66.7809 161.053 66.7544 161.126 66.7544H162.091C162.204 66.7544 162.283 66.8041 162.33 66.9036L165.513 73.3002C165.533 73.34 165.563 73.3665 165.602 73.3798C165.642 73.3864 165.679 73.3765 165.712 73.3499C165.745 73.3234 165.762 73.2869 165.762 73.2405V67.023C165.762 66.95 165.788 66.887 165.841 66.834C165.894 66.7809 165.957 66.7544 166.03 66.7544H167.831ZM174.994 66.7544C175.067 66.7544 175.13 66.7809 175.183 66.834C175.236 66.887 175.262 66.95 175.262 67.023V68.7241C175.262 68.797 175.236 68.86 175.183 68.9131C175.13 68.9595 175.067 68.9827 174.994 68.9827H173.293C173.22 68.9827 173.157 69.0093 173.104 69.0623C173.051 69.1154 173.024 69.1784 173.024 69.2513V80.7314C173.024 80.8044 172.998 80.8674 172.945 80.9204C172.891 80.9735 172.828 81 172.755 81H170.955C170.882 81 170.819 80.9735 170.766 80.9204C170.719 80.8674 170.696 80.8044 170.696 80.7314V69.2513C170.696 69.1784 170.67 69.1154 170.617 69.0623C170.564 69.0093 170.501 68.9827 170.428 68.9827H168.717C168.644 68.9827 168.581 68.9595 168.528 68.9131C168.481 68.86 168.458 68.797 168.458 68.7241V67.023C168.458 66.95 168.481 66.887 168.528 66.834C168.581 66.7809 168.644 66.7544 168.717 66.7544H174.994ZM177.7 66.7544C177.773 66.7544 177.833 66.7809 177.879 66.834C177.932 66.887 177.959 66.95 177.959 67.023V80.7314C177.959 80.8044 177.932 80.8674 177.879 80.9204C177.833 80.9735 177.773 81 177.7 81H175.89C175.817 81 175.754 80.9735 175.701 80.9204C175.654 80.8674 175.631 80.8044 175.631 80.7314V67.023C175.631 66.95 175.654 66.887 175.701 66.834C175.754 66.7809 175.817 66.7544 175.89 66.7544H177.7ZM181.799 68.9827C181.726 68.9827 181.663 69.0093 181.61 69.0623C181.557 69.1154 181.53 69.1784 181.53 69.2513V72.4646C181.53 72.5375 181.557 72.6005 181.61 72.6536C181.663 72.7 181.726 72.7232 181.799 72.7232H183.749C183.822 72.7232 183.882 72.7497 183.928 72.8028C183.981 72.8558 184.008 72.9189 184.008 72.9918V74.6929C184.008 74.7659 183.981 74.8289 183.928 74.8819C183.882 74.9284 183.822 74.9516 183.749 74.9516H181.799C181.726 74.9516 181.663 74.9781 181.61 75.0312C181.557 75.0842 181.53 75.1472 181.53 75.2202V78.503C181.53 78.576 181.557 78.639 181.61 78.692C181.663 78.7451 181.726 78.7716 181.799 78.7716H184.863C184.936 78.7716 184.999 78.7982 185.052 78.8512C185.105 78.9043 185.132 78.9673 185.132 79.0402V80.7314C185.132 80.8044 185.105 80.8674 185.052 80.9204C184.999 80.9735 184.936 81 184.863 81H179.461C179.388 81 179.325 80.9735 179.272 80.9204C179.226 80.8674 179.203 80.8044 179.203 80.7314V67.023C179.203 66.95 179.226 66.887 179.272 66.834C179.325 66.7809 179.388 66.7544 179.461 66.7544H184.863C184.936 66.7544 184.999 66.7809 185.052 66.834C185.105 66.887 185.132 66.95 185.132 67.023V68.7241C185.132 68.797 185.105 68.86 185.052 68.9131C184.999 68.9595 184.936 68.9827 184.863 68.9827H181.799Z" fill="#010101"/>
</g>
<defs>
<filter id="filter0_d_4083_237" x="0.350098" y="-35" width="288" height="222" filterUnits="userSpaceOnUse" color-interpolation-filters="sRGB">
<feFlood flood-opacity="0" result="BackgroundImageFix"/>
<feColorMatrix in="SourceAlpha" type="matrix" values="0 0 0 0 0 0 0 0 0 0 0 0 0 0 0 0 0 0 127 0" result="hardAlpha"/>
<feOffset dx="12" dy="12"/>
<feGaussianBlur stdDeviation="32"/>
<feComposite in2="hardAlpha" operator="out"/>
<feColorMatrix type="matrix" values="0 0 0 0 0 0 0 0 0 0 0 0 0 0 0 0 0 0 0.1 0"/>
<feBlend mode="normal" in2="BackgroundImageFix" result="effect1_dropShadow_4083_237"/>
<feBlend mode="normal" in="SourceGraphic" in2="effect1_dropShadow_4083_237" result="shape"/>
</filter>
</defs>
</svg>
