<svg width="80" height="80" viewBox="0 0 80 80" fill="none" xmlns="http://www.w3.org/2000/svg">
<g id="Frame" clip-path="url(#clip0_4083_184)">
<g id="Group">
<path id="Vector" d="M15.674 26.2832C18.1851 21.8513 21.8522 18.1842 26.2842 15.6731L14.1729 11.1791C13.7551 11.0241 13.3016 10.9922 12.8662 11.0873C12.4308 11.1824 12.0318 11.4005 11.7167 11.7156C11.4016 12.0307 11.1835 12.4297 11.0884 12.8651C10.9933 13.3005 11.0252 13.754 11.1802 14.1718L15.674 26.2832ZM12.0667 39.9999C12.0667 37.4035 12.424 34.889 13.0899 32.5021L1.35837 37.8838C0.953319 38.0697 0.610105 38.3678 0.369492 38.7429C0.128878 39.118 0.000976563 39.5543 0.000976562 39.9999C0.000976563 40.4456 0.128878 40.8819 0.369492 41.257C0.610105 41.6321 0.953319 41.9302 1.35837 42.116L13.0901 47.4977C12.4096 45.0566 12.0652 42.5341 12.0667 39.9999ZM40.001 12.0656C42.5352 12.0641 45.0577 12.4084 47.4988 13.0888L42.1171 1.35727C41.9313 0.952221 41.6331 0.609006 41.258 0.368393C40.8829 0.12778 40.4467 -0.00012207 40.001 -0.00012207C39.5554 -0.00012207 39.1191 0.12778 38.744 0.368393C38.3689 0.609006 38.0707 0.952221 37.8849 1.35727L32.5032 13.089C34.9443 12.4084 37.4668 12.0641 40.001 12.0656ZM64.3281 26.2832L68.8218 14.1718C68.9769 13.754 69.0087 13.3005 68.9136 12.8651C68.8185 12.4297 68.6005 12.0307 68.2854 11.7156C67.9702 11.4005 67.5713 11.1824 67.1359 11.0873C66.7005 10.9922 66.247 11.0241 65.8291 11.1791L53.7177 15.6729C58.1496 18.1842 61.8168 21.8513 64.3281 26.2832ZM40.001 67.9343C37.4669 67.9358 34.9443 67.5915 32.5032 66.911L37.8849 78.6427C38.0708 79.0478 38.3689 79.391 38.744 79.6316C39.1192 79.8722 39.5554 80.0001 40.0011 80.0001C40.4467 80.0001 40.883 79.8721 41.2581 79.6315C41.6332 79.3909 41.9313 79.0477 42.1171 78.6426L47.499 66.9109C45.0578 67.5914 42.5353 67.9357 40.001 67.9343ZM15.674 53.7167L11.1802 65.8281C11.0252 66.2459 10.9933 66.6994 11.0884 67.1348C11.1835 67.5702 11.4016 67.9691 11.7167 68.2843C12.0318 68.5994 12.4308 68.8175 12.8662 68.9125C13.3016 69.0076 13.7551 68.9758 14.1729 68.8207L26.2843 64.327C21.8524 61.8157 18.1853 58.1486 15.674 53.7167ZM78.6437 37.8838L66.912 32.502C67.5779 34.889 67.9352 37.4034 67.9352 39.9998C67.9352 42.5962 67.5779 45.1107 66.912 47.4976L78.6437 42.1159C79.0487 41.93 79.3919 41.6319 79.6324 41.2568C79.873 40.8817 80.0009 40.4455 80.0009 39.9999C80.0009 39.5542 79.873 39.118 79.6324 38.7429C79.3919 38.3678 79.0487 38.0697 78.6437 37.8838ZM64.3281 53.7167C61.8169 58.1486 58.1498 61.8157 53.7179 64.3268L65.8293 68.8206C66.2471 68.9756 66.7006 69.0075 67.136 68.9124C67.5714 68.8173 67.9703 68.5992 68.2854 68.284C68.6005 67.9689 68.8186 67.57 68.9137 67.1346C69.0088 66.6992 68.977 66.2457 68.822 65.8279L64.3281 53.7167ZM40.001 63.2781C27.1654 63.2781 16.7229 52.8356 16.7229 39.9999C16.7229 27.1643 27.1654 16.7218 40.001 16.7218C52.8367 16.7218 63.2791 27.1643 63.2791 39.9999C63.2791 52.8356 52.8367 63.2781 40.001 63.2781Z" fill="#0C1A26"/>
</g>
</g>
<defs>
<clipPath id="clip0_4083_184">
<rect width="80" height="80" fill="white" transform="translate(0.000976562)"/>
</clipPath>
</defs>
</svg>
