<svg width="80" height="80" viewBox="0 0 80 80" fill="none" xmlns="http://www.w3.org/2000/svg">
<g id="Frame">
<g id="Group">
<path id="Vector" fill-rule="evenodd" clip-rule="evenodd" d="M48.1375 13.8109C52.0397 13.8109 55.8543 14.9681 59.0988 17.1361C62.3434 19.304 64.8722 22.3855 66.3655 25.9907C67.8587 29.5959 68.2493 33.563 67.4879 37.3902C66.7265 41.2174 64.8473 44.7329 62.0879 47.4921C59.3285 50.2513 55.8129 52.1303 51.9856 52.8914C48.1583 53.6525 44.1913 53.2615 40.5862 51.768C36.9811 50.2745 33.8998 47.7454 31.7321 44.5007C29.5643 41.2559 28.4075 37.4412 28.4078 33.539C28.4078 30.9481 28.9181 28.3827 29.9096 25.989C30.9012 23.5954 32.3545 21.4205 34.1866 19.5886C36.0187 17.7566 38.1936 16.3035 40.5874 15.3122C42.9811 14.3208 45.5466 13.8107 48.1375 13.8109ZM13.0937 54.4843L9.24996 55.514C8.90323 55.6081 8.60784 55.8356 8.42836 56.1469C8.24888 56.4581 8.19991 56.8277 8.29215 57.175L13.375 76.1453C13.4687 76.4926 13.6964 76.7885 14.0081 76.9681C14.3198 77.1477 14.69 77.1962 15.0375 77.1031L18.8797 76.0734C19.0521 76.0278 19.2139 75.9487 19.3558 75.8405C19.4976 75.7323 19.6167 75.5972 19.7063 75.4429C19.7958 75.2887 19.8541 75.1182 19.8777 74.9414C19.9012 74.7646 19.8897 74.5848 19.8437 74.4125L14.7547 55.4421C14.6613 55.0949 14.4339 54.799 14.1224 54.6194C13.811 54.4398 13.441 54.3912 13.0937 54.4843ZM21.4328 71.7703C25.0437 70.4343 29.8234 71.6906 34.3203 72.8734C38.3531 73.9328 42.1328 74.9265 43.9328 73.7703C52.0765 68.5468 61.7328 63.4921 70.2203 58.5937C70.9234 58.1832 71.4362 57.5118 71.6471 56.7253C71.8581 55.9389 71.7502 55.101 71.3468 54.3937C70.4796 52.8937 68.5875 52.5453 67.0984 53.3C65.3156 54.2078 45.4687 64.1703 45.6046 64.3937C44.4986 65.0357 43.1854 65.2202 41.9453 64.9078C38.5812 64.2312 34.5406 62.925 31.1468 62.0156C31.0055 61.978 30.8729 61.913 30.7566 61.8242C30.6404 61.7354 30.5428 61.6246 30.4693 61.4981C30.3959 61.3716 30.3481 61.2318 30.3287 61.0868C30.3093 60.9418 30.3187 60.7945 30.3562 60.6531C30.3938 60.5117 30.4588 60.3791 30.5476 60.2629C30.6364 60.1466 30.7472 60.049 30.8737 59.9756C31.0002 59.9022 31.14 59.8544 31.285 59.835C31.4299 59.8156 31.5773 59.8249 31.7187 59.8625L42.4515 62.7375C43.1363 62.9091 43.8611 62.8048 44.4696 62.4469C45.0781 62.0891 45.5217 61.5064 45.7045 60.8245C45.8874 60.1427 45.795 59.4163 45.4471 58.802C45.0993 58.1876 44.524 57.7346 43.8453 57.5406L30.9906 54.1031C24.2125 52.2859 25.1359 51.1546 17.35 56.5453L21.4312 71.7765L21.4328 71.7703ZM11.6968 56.9562C12.0361 56.8641 12.395 56.8747 12.7282 56.9867C13.0614 57.0987 13.3539 57.307 13.5687 57.5853C13.7835 57.8636 13.9108 58.1993 13.9347 58.55C13.9586 58.9007 13.8779 59.2506 13.7028 59.5555C13.5278 59.8603 13.2662 60.1063 12.9513 60.2625C12.6363 60.4186 12.2821 60.4777 11.9335 60.4325C11.5849 60.3872 11.2576 60.2396 10.993 60.0082C10.7283 59.7769 10.5383 59.4722 10.4468 59.1328C10.3249 58.6784 10.388 58.1942 10.6222 57.7863C10.8565 57.3783 11.2429 57.0798 11.6968 56.9562ZM25.4687 10.1234L26.625 9.23433V17.2234C26.6543 17.763 26.8894 18.2708 27.2818 18.6424C27.6741 19.0139 28.1939 19.221 28.7343 19.221C29.2747 19.221 29.7946 19.0139 30.1869 18.6424C30.5793 18.2708 30.8143 17.763 30.8437 17.2234V9.23433L32 10.1234C32.4417 10.4646 33.0009 10.6164 33.5546 10.5454C34.1083 10.4743 34.611 10.1862 34.9523 9.74448C35.2936 9.30273 35.4454 8.74351 35.3743 8.18984C35.3032 7.63616 35.0152 7.1334 34.5734 6.79214L30.0421 3.30933C29.6738 3.01561 29.2175 2.85397 28.7464 2.85028C28.2753 2.8466 27.8166 3.00109 27.4437 3.28901L22.889 6.79214C22.4473 7.13423 22.1595 7.63779 22.089 8.19205C22.0186 8.7463 22.1712 9.30586 22.5132 9.74761C22.8553 10.1894 23.3589 10.4771 23.9131 10.5476C24.4674 10.6181 25.027 10.4655 25.4687 10.1234ZM13.9234 26.9015C13.7047 27.0705 13.4548 27.1947 13.188 27.2671C12.9213 27.3395 12.6429 27.3587 12.3688 27.3235C12.0946 27.2883 11.8301 27.1995 11.5903 27.0621C11.3504 26.9247 11.14 26.7413 10.9711 26.5226C10.8021 26.3039 10.6778 26.054 10.6054 25.7873C10.533 25.5205 10.5139 25.2421 10.5491 24.968C10.5842 24.6938 10.6731 24.4293 10.8105 24.1895C10.9479 23.9496 11.1312 23.7392 11.35 23.5703L15.9047 20.0671C16.2776 19.7792 16.7363 19.6247 17.2074 19.6284C17.6785 19.6321 18.1347 19.7937 18.5031 20.0875L23.0343 23.5703C23.2531 23.7392 23.4364 23.9496 23.5738 24.1895C23.7112 24.4293 23.8001 24.6938 23.8352 24.968C23.8704 25.2421 23.8513 25.5205 23.7789 25.7873C23.7065 26.054 23.5822 26.3039 23.4132 26.5226C23.2443 26.7413 23.0339 26.9247 22.794 27.0621C22.5542 27.1995 22.2897 27.2883 22.0155 27.3235C21.7414 27.3587 21.463 27.3395 21.1963 27.2671C20.9295 27.1947 20.6796 27.0705 20.4609 26.9015L19.3047 26.0125V34.0015C19.2753 34.5411 19.0402 35.0489 18.6479 35.4205C18.2555 35.7921 17.7357 35.9992 17.1953 35.9992C16.6549 35.9992 16.1351 35.7921 15.7427 35.4205C15.3503 35.0489 15.1153 34.5411 15.0859 34.0015V26.0125L13.9297 26.9015H13.9234ZM43.5093 36.6828C43.4421 38.8906 44.7593 40.7984 46.8875 41.3937V42.2687C46.8875 42.6002 47.0192 42.9182 47.2536 43.1526C47.488 43.387 47.8059 43.5187 48.1375 43.5187C48.469 43.5187 48.7869 43.387 49.0213 43.1526C49.2558 42.9182 49.3875 42.6002 49.3875 42.2687V41.3937C50.4678 41.0926 51.4024 40.4101 52.0181 39.4728C52.6339 38.5355 52.8892 37.4068 52.7366 36.2957C52.5841 35.1847 52.0341 34.1665 51.1885 33.4298C50.3429 32.6932 49.2589 32.2879 48.1375 32.289C47.7091 32.2885 47.2909 32.1593 46.9369 31.9182C46.5828 31.6771 46.3094 31.3353 46.1521 30.9369C45.9947 30.5386 45.9606 30.1021 46.0542 29.6842C46.1479 29.2662 46.3649 28.8861 46.6772 28.5929C46.9895 28.2998 47.3827 28.1073 47.8057 28.0403C48.2288 27.9733 48.6622 28.035 49.0498 28.2173C49.4373 28.3996 49.7612 28.6941 49.9794 29.0627C50.1976 29.4312 50.3 29.8568 50.2734 30.2843C50.2508 30.4546 50.2636 30.6278 50.311 30.7929C50.3583 30.9581 50.4392 31.1117 50.5486 31.2442C50.658 31.3767 50.7935 31.4852 50.9467 31.563C51.0999 31.6408 51.2674 31.6861 51.4389 31.6963C51.6105 31.7064 51.7822 31.681 51.9435 31.6218C52.1048 31.5626 52.2521 31.4708 52.3763 31.352C52.5005 31.2333 52.5989 31.0903 52.6653 30.9319C52.7318 30.7734 52.7648 30.603 52.7625 30.4312C52.8406 28.2265 51.5515 26.289 49.3875 25.6843V24.8109C49.3875 24.4794 49.2558 24.1614 49.0213 23.927C48.7869 23.6926 48.469 23.5609 48.1375 23.5609C47.8059 23.5609 47.488 23.6926 47.2536 23.927C47.0192 24.1614 46.8875 24.4794 46.8875 24.8109V25.6843C45.8072 25.9855 44.8726 26.6679 44.2568 27.6052C43.641 28.5425 43.3858 29.6712 43.5383 30.7823C43.6908 31.8934 44.2408 32.9115 45.0864 33.6482C45.932 34.3849 47.016 34.7902 48.1375 34.789C48.5651 34.7897 48.9827 34.9185 49.3363 35.159C49.6899 35.3995 49.9632 35.7405 50.121 36.1379C50.2787 36.5354 50.3136 36.971 50.2212 37.3885C50.1288 37.806 49.9133 38.1862 49.6025 38.4799C49.2917 38.7737 48.9 38.9674 48.478 39.0362C48.0559 39.105 47.6229 39.0456 47.235 38.8657C46.8471 38.6858 46.522 38.3936 46.3018 38.0271C46.0817 37.6605 45.9765 37.2363 46 36.8093C45.9938 36.493 45.868 36.1909 45.6478 35.9637C45.4277 35.7365 45.1296 35.6013 44.8136 35.5852C44.4977 35.5692 44.1874 35.6735 43.9454 35.8772C43.7033 36.0809 43.5475 36.3687 43.5093 36.6828ZM48.1375 18.4375C45.1496 18.4371 42.2287 19.3229 39.7443 20.9827C37.2598 22.6424 35.3234 25.0017 34.1798 27.7621C33.0363 30.5224 32.737 33.5599 33.3198 36.4904C33.9027 39.4209 35.3414 42.1127 37.4542 44.2254C39.5669 46.3382 42.2587 47.7769 45.1892 48.3598C48.1197 48.9426 51.1572 48.6433 53.9175 47.4998C56.6779 46.3562 59.0372 44.4198 60.6969 41.9353C62.3567 39.4509 63.2425 36.53 63.2421 33.5421C63.2421 29.5361 61.6508 25.6942 58.8181 22.8615C55.9854 20.0288 52.1435 18.4375 48.1375 18.4375ZM48.1375 20.9375C45.644 20.9371 43.2065 21.6763 41.1332 23.0613C39.0599 24.4464 37.4439 26.4152 36.4895 28.7188C35.5352 31.0223 35.2854 33.5572 35.7718 36.0027C36.2582 38.4482 37.4588 40.6946 39.2219 42.4577C40.985 44.2208 43.2314 45.4214 45.6769 45.9078C48.1224 46.3942 50.6573 46.1444 52.9608 45.1901C55.2644 44.2357 57.2332 42.6197 58.6183 40.5464C60.0033 38.4731 60.7425 36.0356 60.7421 33.5421C60.7417 30.1993 59.4136 26.9935 57.0499 24.6297C54.6861 22.266 51.4803 20.9379 48.1375 20.9375Z" fill="#0C1A26"/>
</g>
</g>
</svg>
