<svg width="80" height="80" viewBox="0 0 80 80" fill="none" xmlns="http://www.w3.org/2000/svg">
<g id="Frame" clip-path="url(#clip0_4083_193)">
<g id="Group">
<path id="Vector" d="M18.6951 16.2211L50.5873 7.51583L48.8984 4.10202C47.7934 1.88304 45.0983 0.966699 42.8793 2.0717L14.329 16.2211H18.6951ZM60.4874 7.76737C60.0922 7.76737 59.6968 7.82128 59.3015 7.92908L51.8092 9.97737L28.9276 16.2211H66.219L64.8175 11.0824C64.2785 9.079 62.4638 7.76737 60.4874 7.76737ZM70.8995 19.3654H4.50084C3.08142 19.3654 1.81471 20.0212 0.988209 21.0543C0.610893 21.5304 0.323414 22.0784 0.161707 22.6803C0.062886 23.0577 0 23.4529 0 23.8572V73.9055C0 76.3851 2.01235 78.3974 4.49186 78.3974H70.8905C73.3701 78.3974 75.3824 76.3851 75.3824 73.9055V61.3732H48.7277C44.5143 61.3732 41.0915 57.9504 41.0915 53.7371V43.7472C41.0915 41.6809 41.9179 39.8034 43.2566 38.4289C44.4425 37.207 46.0326 36.3805 47.8113 36.1739C48.1078 36.138 48.4133 36.12 48.7187 36.12H75.3824V23.8572C75.3914 21.3777 73.379 19.3654 70.8995 19.3654Z" fill="#0C1A26"/>
<path id="Vector_2" d="M78.5357 40.4142C78.0865 40.001 77.5565 39.6865 76.9635 39.4799C76.5053 39.3273 76.0202 39.2374 75.5082 39.2374H48.7277C46.2481 39.2374 44.2358 41.2497 44.2358 43.7293V53.7281C44.2358 56.2076 46.2481 58.2199 48.7277 58.2199H75.5082C76.0202 58.2199 76.5054 58.1301 76.9635 57.9774C77.5565 57.7797 78.0865 57.4563 78.5357 57.0431C79.4341 56.2255 80 55.0397 80 53.7282V43.7293C80 42.4176 79.4341 41.2316 78.5357 40.4142ZM58.1067 49.6225C58.1067 50.8623 57.1005 51.8684 55.8608 51.8684H54.3695C53.1297 51.8684 52.1235 50.8623 52.1235 49.6225V48.1312C52.1235 47.4125 52.4559 46.7746 52.986 46.3703C53.3723 46.0739 53.8485 45.8853 54.3695 45.8853H55.8608C57.1005 45.8853 58.1067 46.8914 58.1067 48.1312V49.6225Z" fill="#0C1A26"/>
</g>
</g>
<defs>
<clipPath id="clip0_4083_193">
<rect width="80" height="80" fill="white"/>
</clipPath>
</defs>
</svg>
