<svg width="81" height="80" viewBox="0 0 81 80" fill="none" xmlns="http://www.w3.org/2000/svg">
<g id="Frame">
<g id="Group">
<path id="Vector" d="M13.2714 40.0143C13.2714 28.7275 20.2579 19.0431 30.1326 15.0549L35.1712 4.9342C17.9947 7.37436 4.74219 22.1744 4.74219 40.0143C4.74219 56.2451 15.7121 69.9612 30.6265 74.1405L31.5956 65.5169C20.9546 61.9267 13.2714 51.851 13.2714 40.0143ZM75.6127 40.0143C75.6127 23.7867 64.6476 10.0733 49.7383 5.89081L48.7473 14.508C59.3944 18.0948 67.0835 28.1734 67.0835 40.0143C67.0835 51.2353 60.1783 60.8722 50.3948 64.9034L45.2165 75.0896C62.377 72.6356 75.6127 57.8428 75.6127 40.0143Z" fill="#0C1A26"/>
<path id="Vector_2" d="M60.4601 35.7201C60.796 35.0593 60.7643 34.3335 60.3764 33.7018C59.9889 33.0699 59.3007 32.818 58.5592 32.818H42.3481L45.8379 2.4788C45.9568 1.45023 45.3192 0.384614 44.3261 0.0898232C44.1256 0.0302778 43.9176 2.38484e-05 43.7085 0C42.9212 0 42.177 0.44805 41.8105 1.18396L19.8869 45.2363C19.558 45.897 19.5943 46.7769 19.9829 47.4048C20.3718 48.0325 21.0573 48.5437 21.7959 48.5437H37.7932L34.5137 77.7411C34.3991 78.7657 35.0338 79.6274 36.0216 79.9227C36.2244 79.9835 36.4299 80 36.6327 80C37.0264 79.9999 37.4125 79.8908 37.748 79.6849C38.0836 79.4789 38.3556 79.1841 38.5339 78.8331L60.4601 35.7201Z" fill="#0C1A26"/>
</g>
</g>
</svg>
