<svg width="25" height="25" viewBox="0 0 25 25" fill="none" xmlns="http://www.w3.org/2000/svg">
<g id="lets-icons:arrow-right">
<path id="Vector" d="M20.9883 12.6211L21.6953 11.9141L22.4023 12.6211L21.6953 13.3281L20.9883 12.6211ZM5.98828 13.6211C5.72306 13.6211 5.46871 13.5157 5.28117 13.3282C5.09364 13.1406 4.98828 12.8863 4.98828 12.6211C4.98828 12.3558 5.09364 12.1015 5.28117 11.914C5.46871 11.7264 5.72306 11.6211 5.98828 11.6211V13.6211ZM15.6953 5.91406L21.6953 11.9141L20.2813 13.3281L14.2813 7.32806L15.6953 5.91406ZM21.6953 13.3281L15.6953 19.3281L14.2813 17.9141L20.2813 11.9141L21.6953 13.3281ZM20.9883 13.6211H5.98828V11.6211H20.9883V13.6211Z" fill="white"/>
</g>
</svg>
