<svg width="16" height="18" viewBox="0 0 16 18" fill="none" xmlns="http://www.w3.org/2000/svg">
<g id="Location">
<path id="Location_2" fill-rule="evenodd" clip-rule="evenodd" d="M0.916504 7.59821C0.916504 3.76499 4.11974 0.666748 7.99438 0.666748C11.8799 0.666748 15.0832 3.76499 15.0832 7.59821C15.0832 9.52982 14.3807 11.3231 13.2244 12.8431C11.9488 14.5197 10.3766 15.9805 8.60696 17.1271C8.20193 17.3921 7.8364 17.4121 7.39188 17.1271C5.61212 15.9805 4.03991 14.5197 2.77525 12.8431C1.61816 11.3231 0.916504 9.52982 0.916504 7.59821ZM5.66169 7.81404C5.66169 9.09817 6.70955 10.1081 7.99438 10.1081C9.28004 10.1081 10.338 9.09817 10.338 7.81404C10.338 6.53991 9.28004 5.48077 7.99438 5.48077C6.70955 5.48077 5.66169 6.53991 5.66169 7.81404Z" fill="#FFDF64"/>
</g>
</svg>
