<svg width="56" height="56" viewBox="0 0 56 56" fill="none" xmlns="http://www.w3.org/2000/svg">
<g id="mingcute:ceiling-lamp-fill">
<g id="Group">
<path id="Vector" fill-rule="evenodd" clip-rule="evenodd" d="M28 44.3333C28.6188 44.3333 29.2123 44.5791 29.6499 45.0167C30.0875 45.4543 30.3333 46.0478 30.3333 46.6666V49C30.3333 49.6188 30.0875 50.2123 29.6499 50.6499C29.2123 51.0875 28.6188 51.3333 28 51.3333C27.3811 51.3333 26.7877 51.0875 26.3501 50.6499C25.9125 50.2123 25.6666 49.6188 25.6666 49V46.6666C25.6666 46.0478 25.9125 45.4543 26.3501 45.0167C26.7877 44.5791 27.3811 44.3333 28 44.3333ZM39.55 39.55C39.9518 39.1482 40.4863 38.9069 41.0534 38.8712C41.6205 38.8356 42.181 39.008 42.63 39.3563L42.8493 39.55L44.499 41.1996C44.9175 41.6195 45.1604 42.183 45.1785 42.7755C45.1966 43.3681 44.9885 43.9453 44.5964 44.3899C44.2043 44.8346 43.6577 45.1133 43.0675 45.1696C42.4774 45.2258 41.888 45.0553 41.419 44.6926L41.1996 44.499L39.55 42.8493C39.1126 42.4117 38.8668 41.8183 38.8668 41.1996C38.8668 40.5809 39.1126 39.9875 39.55 39.55ZM16.45 39.55C16.8874 39.9875 17.1332 40.5809 17.1332 41.1996C17.1332 41.8183 16.8874 42.4117 16.45 42.8493L14.8003 44.499C14.3602 44.924 13.7708 45.1592 13.159 45.1539C12.5473 45.1485 11.962 44.9032 11.5294 44.4705C11.0968 44.0379 10.8514 43.4527 10.8461 42.8409C10.8408 42.2291 11.0759 41.6397 11.501 41.1996L13.1506 39.55C13.5882 39.1125 14.1816 38.8668 14.8003 38.8668C15.419 38.8668 16.0124 39.1125 16.45 39.55ZM28 4.66663C28.5715 4.6667 29.1231 4.87652 29.5502 5.2563C29.9773 5.63607 30.2501 6.15937 30.317 6.72696L30.3333 6.99996V9.56663L49.4083 28.644C50.8293 30.0626 49.9287 32.4473 48.0083 32.6526L47.7423 32.6666H39.4333C38.9022 35.2578 37.5067 37.5918 35.4755 39.286C33.4443 40.9803 30.8978 41.9343 28.2533 41.9918C25.6089 42.0493 23.0233 41.2068 20.9204 39.6024C18.8175 37.9981 17.3218 35.727 16.6786 33.1613L16.5666 32.6666H8.25998C6.25098 32.6666 5.20332 30.345 6.41432 28.8423L6.59398 28.644L25.6666 9.56663V6.99996C25.6666 6.38112 25.9125 5.78763 26.3501 5.35004C26.7877 4.91246 27.3811 4.66663 28 4.66663ZM34.6033 32.6666H21.3967C21.8671 33.9973 22.7286 35.1548 23.8683 35.9873C25.008 36.8197 26.3726 37.2884 27.7833 37.3318C29.194 37.3752 30.5849 36.9913 31.7736 36.2304C32.9623 35.4695 33.8934 34.3672 34.4447 33.068L34.6033 32.6666Z" fill="#0C1A26"/>
</g>
</g>
</svg>
