<svg width="163" height="40" viewBox="0 0 163 40" fill="none" xmlns="http://www.w3.org/2000/svg">
<g id="trustpilot logo" clip-path="url(#clip0_4083_121)">
<g id="Group">
<path id="Vector" d="M42.6808 12.0681H59.1253V15.1362H52.6593V32.3835H49.1038V15.1362H42.6665V12.0681H42.6808ZM58.4228 17.6739H61.4622V20.5126H61.5196C61.6199 20.1111 61.8063 19.724 62.0787 19.3513C62.3511 18.9785 62.6808 18.6201 63.0679 18.319C63.455 18.0036 63.8851 17.7599 64.3583 17.5592C64.8314 17.3728 65.3188 17.2724 65.8063 17.2724C66.179 17.2724 66.4514 17.2868 66.5948 17.3011C66.7382 17.3154 66.8816 17.3441 67.0393 17.3584V20.4839C66.8099 20.4409 66.5805 20.4122 66.3368 20.3835C66.093 20.3549 65.8636 20.3405 65.6342 20.3405C65.0894 20.3405 64.5733 20.4552 64.0859 20.6703C63.5984 20.8853 63.1826 21.2151 62.8242 21.6308C62.4658 22.0609 62.179 22.5771 61.964 23.2079C61.7489 23.8387 61.6486 24.5556 61.6486 25.3728V32.3692H58.4084V17.6739H58.4228ZM81.9353 32.3835H78.7525V30.3333H78.6952C78.2937 31.0789 77.7059 31.6667 76.9174 32.1111C76.1289 32.5556 75.326 32.785 74.5088 32.785C72.5733 32.785 71.1683 32.3118 70.3081 31.3513C69.4479 30.3907 69.0178 28.9427 69.0178 27.0072V17.6739H72.2579V26.6918C72.2579 27.9821 72.5016 28.8997 73.0034 29.4301C73.4909 29.9606 74.1934 30.233 75.0823 30.233C75.7704 30.233 76.3296 30.1326 76.7884 29.9176C77.2471 29.7025 77.6199 29.4301 77.8923 29.0717C78.179 28.7276 78.3798 28.2975 78.5088 27.8101C78.6378 27.3226 78.6952 26.7921 78.6952 26.2187V17.6882H81.9353V32.3835ZM87.455 27.6667C87.5554 28.6129 87.9138 29.2724 88.5303 29.6595C89.1611 30.0323 89.9066 30.233 90.7812 30.233C91.0823 30.233 91.4264 30.2043 91.8135 30.1613C92.2006 30.1183 92.5733 30.0179 92.9031 29.8889C93.2471 29.7599 93.5196 29.5592 93.7489 29.3011C93.964 29.043 94.0644 28.7133 94.05 28.2975C94.0357 27.8817 93.878 27.5377 93.5912 27.2796C93.3045 27.0072 92.9461 26.8065 92.5016 26.6344C92.0572 26.4767 91.5554 26.3333 90.9819 26.2187C90.4084 26.104 89.835 25.9749 89.2471 25.8459C88.645 25.7169 88.0572 25.5448 87.498 25.3584C86.9389 25.1721 86.4371 24.914 85.9927 24.5842C85.5482 24.2688 85.1898 23.8531 84.9317 23.3513C84.6593 22.8495 84.5303 22.233 84.5303 21.4875C84.5303 20.6846 84.731 20.0251 85.1181 19.4803C85.5052 18.9355 86.007 18.5054 86.5948 18.1756C87.197 17.8459 87.8565 17.6165 88.5877 17.4731C89.3188 17.3441 90.0213 17.2724 90.6808 17.2724C91.4407 17.2724 92.1719 17.3584 92.8601 17.5161C93.5482 17.6739 94.179 17.9319 94.7382 18.3047C95.2973 18.6631 95.7561 19.1362 96.1289 19.7097C96.5016 20.2832 96.731 20.9857 96.8314 21.8029H93.4479C93.2902 21.0287 92.9461 20.4982 92.3869 20.2402C91.8278 19.9678 91.1826 19.8387 90.4658 19.8387C90.2364 19.8387 89.964 19.8531 89.6486 19.8961C89.3332 19.9391 89.0464 20.0108 88.7597 20.1111C88.4873 20.2115 88.2579 20.3692 88.0572 20.5699C87.8708 20.7706 87.7704 21.0287 87.7704 21.3584C87.7704 21.7599 87.9138 22.0753 88.1862 22.319C88.4586 22.5627 88.817 22.7635 89.2615 22.9355C89.7059 23.0932 90.2077 23.2366 90.7812 23.3513C91.3547 23.466 91.9425 23.595 92.5446 23.724C93.1325 23.8531 93.7059 24.0251 94.2794 24.2115C94.8529 24.3979 95.3547 24.6559 95.7991 24.9857C96.2436 25.3154 96.602 25.7169 96.8744 26.2043C97.1468 26.6918 97.2902 27.3083 97.2902 28.0251C97.2902 28.8997 97.0894 29.6308 96.688 30.2473C96.2866 30.8495 95.7704 31.3513 95.1396 31.724C94.5088 32.0968 93.7919 32.3835 93.0178 32.5556C92.2436 32.7276 91.4694 32.8136 90.7095 32.8136C89.7776 32.8136 88.9174 32.7133 88.1289 32.4982C87.3403 32.2832 86.6522 31.9678 86.0787 31.552C85.5052 31.1219 85.0464 30.5914 84.7167 29.9606C84.3869 29.3298 84.2149 28.5699 84.1862 27.6954H87.455V27.6667ZM98.1504 17.6739H100.602V13.2581H103.842V17.6739H106.767V20.0968H103.842V27.9534C103.842 28.2975 103.856 28.5842 103.885 28.8423C103.914 29.086 103.985 29.3011 104.086 29.4731C104.186 29.6452 104.344 29.7742 104.559 29.8602C104.774 29.9463 105.046 29.9893 105.419 29.9893C105.649 29.9893 105.878 29.9893 106.107 29.9749C106.337 29.9606 106.566 29.9319 106.796 29.8746V32.3835C106.437 32.4265 106.079 32.4552 105.749 32.4982C105.405 32.5412 105.061 32.5556 104.702 32.5556C103.842 32.5556 103.154 32.4696 102.638 32.3118C102.122 32.1541 101.706 31.9104 101.419 31.595C101.118 31.2796 100.932 30.8925 100.817 30.4194C100.717 29.9463 100.645 29.4014 100.631 28.7993V20.1255H98.179V17.6739H98.1504ZM109.061 17.6739H112.129V19.6667H112.186C112.645 18.8065 113.276 18.2043 114.093 17.8316C114.91 17.4588 115.785 17.2724 116.745 17.2724C117.907 17.2724 118.91 17.4731 119.77 17.8889C120.631 18.2903 121.348 18.8495 121.921 19.5663C122.494 20.2832 122.91 21.1147 123.197 22.0609C123.484 23.0072 123.627 24.0251 123.627 25.1004C123.627 26.0896 123.498 27.0502 123.24 27.9678C122.982 28.8997 122.595 29.7169 122.079 30.4337C121.563 31.1506 120.903 31.7097 120.1 32.1398C119.297 32.5699 118.365 32.785 117.276 32.785C116.803 32.785 116.33 32.742 115.856 32.6559C115.383 32.5699 114.925 32.4265 114.494 32.2402C114.064 32.0538 113.649 31.8101 113.29 31.509C112.917 31.2079 112.616 30.8638 112.358 30.4767H112.301V37.8172H109.061V17.6739ZM120.387 25.043C120.387 24.3835 120.301 23.7384 120.129 23.1075C119.957 22.4767 119.699 21.9319 119.355 21.4445C119.011 20.957 118.58 20.5699 118.079 20.2832C117.563 19.9964 116.975 19.8387 116.315 19.8387C114.953 19.8387 113.921 20.3118 113.233 21.2581C112.545 22.2043 112.201 23.466 112.201 25.043C112.201 25.7885 112.287 26.4767 112.473 27.1075C112.659 27.7384 112.917 28.2832 113.29 28.742C113.649 29.2007 114.079 29.5592 114.58 29.8172C115.082 30.0896 115.67 30.2187 116.33 30.2187C117.075 30.2187 117.692 30.0609 118.208 29.7599C118.724 29.4588 119.14 29.0574 119.469 28.5842C119.799 28.0968 120.043 27.552 120.186 26.9355C120.315 26.319 120.387 25.6882 120.387 25.043ZM126.107 12.0681H129.347V15.1362H126.107V12.0681ZM126.107 17.6739H129.347V32.3835H126.107V17.6739ZM132.244 12.0681H135.484V32.3835H132.244V12.0681ZM145.419 32.785C144.244 32.785 143.197 32.5842 142.279 32.1971C141.362 31.8101 140.588 31.2653 139.942 30.5914C139.312 29.9032 138.824 29.086 138.494 28.1398C138.165 27.1936 137.993 26.147 137.993 25.0144C137.993 23.8961 138.165 22.8638 138.494 21.9176C138.824 20.9713 139.312 20.1541 139.942 19.466C140.573 18.7778 141.362 18.2473 142.279 17.8602C143.197 17.4731 144.244 17.2724 145.419 17.2724C146.595 17.2724 147.641 17.4731 148.559 17.8602C149.477 18.2473 150.251 18.7921 150.896 19.466C151.527 20.1541 152.014 20.9713 152.344 21.9176C152.674 22.8638 152.846 23.8961 152.846 25.0144C152.846 26.147 152.674 27.1936 152.344 28.1398C152.014 29.086 151.527 29.9032 150.896 30.5914C150.265 31.2796 149.477 31.8101 148.559 32.1971C147.641 32.5842 146.595 32.785 145.419 32.785ZM145.419 30.2187C146.136 30.2187 146.767 30.0609 147.297 29.7599C147.828 29.4588 148.258 29.0574 148.602 28.5699C148.946 28.0825 149.19 27.5233 149.362 26.9068C149.52 26.2903 149.606 25.6595 149.606 25.0144C149.606 24.3835 149.52 23.767 149.362 23.1362C149.204 22.5054 148.946 21.9606 148.602 21.4731C148.258 20.9857 147.828 20.5986 147.297 20.2975C146.767 19.9964 146.136 19.8387 145.419 19.8387C144.702 19.8387 144.072 19.9964 143.541 20.2975C143.011 20.5986 142.58 21 142.236 21.4731C141.892 21.9606 141.649 22.5054 141.477 23.1362C141.319 23.767 141.233 24.3835 141.233 25.0144C141.233 25.6595 141.319 26.2903 141.477 26.9068C141.634 27.5233 141.892 28.0825 142.236 28.5699C142.58 29.0574 143.011 29.4588 143.541 29.7599C144.072 30.0753 144.702 30.2187 145.419 30.2187ZM153.792 17.6739H156.244V13.2581H159.484V17.6739H162.408V20.0968H159.484V27.9534C159.484 28.2975 159.498 28.5842 159.527 28.8423C159.555 29.086 159.627 29.3011 159.727 29.4731C159.828 29.6452 159.986 29.7742 160.201 29.8602C160.416 29.9463 160.688 29.9893 161.061 29.9893C161.29 29.9893 161.52 29.9893 161.749 29.9749C161.978 29.9606 162.208 29.9319 162.437 29.8746V32.3835C162.079 32.4265 161.72 32.4552 161.391 32.4982C161.046 32.5412 160.702 32.5556 160.344 32.5556C159.484 32.5556 158.796 32.4696 158.279 32.3118C157.763 32.1541 157.348 31.9104 157.061 31.595C156.76 31.2796 156.573 30.8925 156.459 30.4194C156.358 29.9463 156.287 29.4014 156.272 28.7993V20.1255H153.821V17.6739H153.792Z" fill="white"/>
<path id="Vector_2" d="M38.8961 14.1362H24.043L19.4552 0L14.853 14.1362L0 14.1219L12.0287 22.8674L7.42652 36.9892L19.4552 28.2581L31.4695 36.9892L26.8817 22.8674L38.8961 14.1362Z" fill="#00B67A"/>
<path id="Vector_3" d="M27.9139 26.0646L26.8816 22.8674L19.4551 28.2581L27.9139 26.0646Z" fill="#005128"/>
</g>
</g>
<defs>
<clipPath id="clip0_4083_121">
<rect width="162.437" height="40" fill="white"/>
</clipPath>
</defs>
</svg>
